<mxfile host="app.diagrams.net" modified="2023-12-13T17:03:21.755Z" agent="Mozilla/5.0 (Windows NT 10.0; Win64; x64) AppleWebKit/537.36 (KHTML, like Gecko) Chrome/120.0.0.0 Safari/537.36 Edg/120.0.0.0" etag="d7Jq6tx8PypHnpmdyxoz" version="21.7.5" type="github" pages="2">
  <diagram id="7hVb7ib1BImvii1vWPBc" name="Page-1">
    <mxGraphModel dx="1434" dy="845" grid="1" gridSize="10" guides="1" tooltips="1" connect="1" arrows="1" fold="1" page="1" pageScale="1" pageWidth="1169" pageHeight="827" math="0" shadow="0">
      <root>
        <mxCell id="0" />
        <mxCell id="1" parent="0" />
        <mxCell id="3BNdl_GEFzRhaG3r9pQ4-6" style="edgeStyle=orthogonalEdgeStyle;rounded=0;orthogonalLoop=1;jettySize=auto;html=1;entryX=0;entryY=0.5;entryDx=0;entryDy=0;" edge="1" parent="1" source="3BNdl_GEFzRhaG3r9pQ4-1" target="3BNdl_GEFzRhaG3r9pQ4-5">
          <mxGeometry relative="1" as="geometry" />
        </mxCell>
        <mxCell id="3BNdl_GEFzRhaG3r9pQ4-17" value="dimodifikasi untuk mobile dan edge" style="edgeStyle=orthogonalEdgeStyle;rounded=0;orthogonalLoop=1;jettySize=auto;html=1;entryX=0;entryY=0.5;entryDx=0;entryDy=0;" edge="1" parent="1" source="3BNdl_GEFzRhaG3r9pQ4-1" target="3BNdl_GEFzRhaG3r9pQ4-16">
          <mxGeometry relative="1" as="geometry" />
        </mxCell>
        <mxCell id="3BNdl_GEFzRhaG3r9pQ4-1" value="EfficientDet" style="rounded=1;whiteSpace=wrap;html=1;" vertex="1" parent="1">
          <mxGeometry x="40" y="40" width="120" height="60" as="geometry" />
        </mxCell>
        <mxCell id="3BNdl_GEFzRhaG3r9pQ4-15" style="edgeStyle=orthogonalEdgeStyle;rounded=0;orthogonalLoop=1;jettySize=auto;html=1;" edge="1" parent="1" source="3BNdl_GEFzRhaG3r9pQ4-2" target="3BNdl_GEFzRhaG3r9pQ4-10">
          <mxGeometry relative="1" as="geometry" />
        </mxCell>
        <mxCell id="3BNdl_GEFzRhaG3r9pQ4-2" value="Head" style="rounded=1;whiteSpace=wrap;html=1;" vertex="1" parent="1">
          <mxGeometry x="200" y="360" width="120" height="60" as="geometry" />
        </mxCell>
        <mxCell id="3BNdl_GEFzRhaG3r9pQ4-14" style="edgeStyle=orthogonalEdgeStyle;rounded=0;orthogonalLoop=1;jettySize=auto;html=1;" edge="1" parent="1" source="3BNdl_GEFzRhaG3r9pQ4-3" target="3BNdl_GEFzRhaG3r9pQ4-11">
          <mxGeometry relative="1" as="geometry" />
        </mxCell>
        <mxCell id="3BNdl_GEFzRhaG3r9pQ4-3" value="Neck" style="rounded=1;whiteSpace=wrap;html=1;" vertex="1" parent="1">
          <mxGeometry x="200" y="280" width="120" height="60" as="geometry" />
        </mxCell>
        <mxCell id="3BNdl_GEFzRhaG3r9pQ4-13" style="edgeStyle=orthogonalEdgeStyle;rounded=0;orthogonalLoop=1;jettySize=auto;html=1;" edge="1" parent="1" source="3BNdl_GEFzRhaG3r9pQ4-4" target="3BNdl_GEFzRhaG3r9pQ4-12">
          <mxGeometry relative="1" as="geometry" />
        </mxCell>
        <mxCell id="3BNdl_GEFzRhaG3r9pQ4-4" value="Backbone" style="rounded=1;whiteSpace=wrap;html=1;" vertex="1" parent="1">
          <mxGeometry x="200" y="200" width="120" height="60" as="geometry" />
        </mxCell>
        <mxCell id="3BNdl_GEFzRhaG3r9pQ4-7" style="edgeStyle=orthogonalEdgeStyle;rounded=0;orthogonalLoop=1;jettySize=auto;html=1;entryX=0;entryY=0.5;entryDx=0;entryDy=0;" edge="1" parent="1" source="3BNdl_GEFzRhaG3r9pQ4-5" target="3BNdl_GEFzRhaG3r9pQ4-4">
          <mxGeometry relative="1" as="geometry" />
        </mxCell>
        <mxCell id="3BNdl_GEFzRhaG3r9pQ4-8" style="edgeStyle=orthogonalEdgeStyle;rounded=0;orthogonalLoop=1;jettySize=auto;html=1;entryX=0;entryY=0.5;entryDx=0;entryDy=0;" edge="1" parent="1" source="3BNdl_GEFzRhaG3r9pQ4-5" target="3BNdl_GEFzRhaG3r9pQ4-3">
          <mxGeometry relative="1" as="geometry" />
        </mxCell>
        <mxCell id="3BNdl_GEFzRhaG3r9pQ4-9" style="edgeStyle=orthogonalEdgeStyle;rounded=0;orthogonalLoop=1;jettySize=auto;html=1;entryX=0;entryY=0.5;entryDx=0;entryDy=0;" edge="1" parent="1" source="3BNdl_GEFzRhaG3r9pQ4-5" target="3BNdl_GEFzRhaG3r9pQ4-2">
          <mxGeometry relative="1" as="geometry" />
        </mxCell>
        <mxCell id="3BNdl_GEFzRhaG3r9pQ4-5" value="Arsitektur" style="rounded=1;whiteSpace=wrap;html=1;" vertex="1" parent="1">
          <mxGeometry x="120" y="120" width="120" height="60" as="geometry" />
        </mxCell>
        <mxCell id="3BNdl_GEFzRhaG3r9pQ4-10" value="Class Prediction &amp;amp; Box Prediction" style="rounded=1;whiteSpace=wrap;html=1;" vertex="1" parent="1">
          <mxGeometry x="360" y="360" width="120" height="60" as="geometry" />
        </mxCell>
        <mxCell id="3BNdl_GEFzRhaG3r9pQ4-19" value="Salah satu dari" style="edgeStyle=orthogonalEdgeStyle;rounded=0;orthogonalLoop=1;jettySize=auto;html=1;startArrow=classic;startFill=1;endArrow=none;endFill=0;" edge="1" parent="1" source="3BNdl_GEFzRhaG3r9pQ4-11" target="3BNdl_GEFzRhaG3r9pQ4-18">
          <mxGeometry relative="1" as="geometry" />
        </mxCell>
        <mxCell id="3BNdl_GEFzRhaG3r9pQ4-11" value="BiFPN" style="rounded=1;whiteSpace=wrap;html=1;" vertex="1" parent="1">
          <mxGeometry x="360" y="280" width="120" height="60" as="geometry" />
        </mxCell>
        <mxCell id="3BNdl_GEFzRhaG3r9pQ4-12" value="EfficientNet" style="rounded=1;whiteSpace=wrap;html=1;" vertex="1" parent="1">
          <mxGeometry x="360" y="200" width="120" height="60" as="geometry" />
        </mxCell>
        <mxCell id="3BNdl_GEFzRhaG3r9pQ4-22" value="penelitian lain" style="edgeStyle=orthogonalEdgeStyle;rounded=0;orthogonalLoop=1;jettySize=auto;html=1;" edge="1" parent="1" source="3BNdl_GEFzRhaG3r9pQ4-16" target="3BNdl_GEFzRhaG3r9pQ4-21">
          <mxGeometry relative="1" as="geometry" />
        </mxCell>
        <mxCell id="3BNdl_GEFzRhaG3r9pQ4-43" value="modifikasinya berupa" style="edgeStyle=orthogonalEdgeStyle;rounded=0;orthogonalLoop=1;jettySize=auto;html=1;" edge="1" parent="1" source="3BNdl_GEFzRhaG3r9pQ4-16" target="3BNdl_GEFzRhaG3r9pQ4-42">
          <mxGeometry relative="1" as="geometry" />
        </mxCell>
        <mxCell id="3BNdl_GEFzRhaG3r9pQ4-16" value="EfficientDet-lite" style="rounded=1;whiteSpace=wrap;html=1;" vertex="1" parent="1">
          <mxGeometry x="520" y="40" width="120" height="60" as="geometry" />
        </mxCell>
        <mxCell id="3BNdl_GEFzRhaG3r9pQ4-37" value="contoh lain" style="edgeStyle=orthogonalEdgeStyle;rounded=0;orthogonalLoop=1;jettySize=auto;html=1;" edge="1" parent="1" source="3BNdl_GEFzRhaG3r9pQ4-18" target="3BNdl_GEFzRhaG3r9pQ4-36">
          <mxGeometry relative="1" as="geometry" />
        </mxCell>
        <mxCell id="3BNdl_GEFzRhaG3r9pQ4-39" value="contoh lain" style="edgeStyle=orthogonalEdgeStyle;rounded=0;orthogonalLoop=1;jettySize=auto;html=1;" edge="1" parent="1" source="3BNdl_GEFzRhaG3r9pQ4-18" target="3BNdl_GEFzRhaG3r9pQ4-38">
          <mxGeometry relative="1" as="geometry" />
        </mxCell>
        <mxCell id="3BNdl_GEFzRhaG3r9pQ4-18" value="FPN" style="rounded=1;whiteSpace=wrap;html=1;" vertex="1" parent="1">
          <mxGeometry x="510" y="440" width="120" height="60" as="geometry" />
        </mxCell>
        <mxCell id="3BNdl_GEFzRhaG3r9pQ4-20" value="Compound Scaling" style="rounded=1;whiteSpace=wrap;html=1;" vertex="1" parent="1">
          <mxGeometry x="200" y="460" width="120" height="60" as="geometry" />
        </mxCell>
        <mxCell id="3BNdl_GEFzRhaG3r9pQ4-24" value="" style="edgeStyle=orthogonalEdgeStyle;rounded=0;orthogonalLoop=1;jettySize=auto;html=1;" edge="1" parent="1" source="3BNdl_GEFzRhaG3r9pQ4-21" target="3BNdl_GEFzRhaG3r9pQ4-23">
          <mxGeometry relative="1" as="geometry" />
        </mxCell>
        <mxCell id="3BNdl_GEFzRhaG3r9pQ4-25" value="" style="edgeStyle=orthogonalEdgeStyle;rounded=0;orthogonalLoop=1;jettySize=auto;html=1;" edge="1" parent="1" source="3BNdl_GEFzRhaG3r9pQ4-21" target="3BNdl_GEFzRhaG3r9pQ4-23">
          <mxGeometry relative="1" as="geometry" />
        </mxCell>
        <mxCell id="3BNdl_GEFzRhaG3r9pQ4-26" style="edgeStyle=orthogonalEdgeStyle;rounded=0;orthogonalLoop=1;jettySize=auto;html=1;entryX=0.5;entryY=0;entryDx=0;entryDy=0;" edge="1" parent="1" source="3BNdl_GEFzRhaG3r9pQ4-21" target="3BNdl_GEFzRhaG3r9pQ4-27">
          <mxGeometry relative="1" as="geometry">
            <mxPoint x="920" y="150" as="targetPoint" />
          </mxGeometry>
        </mxCell>
        <mxCell id="3BNdl_GEFzRhaG3r9pQ4-21" value="Modified&lt;br&gt;EfficientDet-lite" style="rounded=1;whiteSpace=wrap;html=1;" vertex="1" parent="1">
          <mxGeometry x="800" y="40" width="120" height="60" as="geometry" />
        </mxCell>
        <mxCell id="3BNdl_GEFzRhaG3r9pQ4-29" value="" style="edgeStyle=orthogonalEdgeStyle;rounded=0;orthogonalLoop=1;jettySize=auto;html=1;" edge="1" parent="1" source="3BNdl_GEFzRhaG3r9pQ4-23" target="3BNdl_GEFzRhaG3r9pQ4-28">
          <mxGeometry relative="1" as="geometry" />
        </mxCell>
        <mxCell id="3BNdl_GEFzRhaG3r9pQ4-35" value="" style="edgeStyle=orthogonalEdgeStyle;rounded=0;orthogonalLoop=1;jettySize=auto;html=1;" edge="1" parent="1" source="3BNdl_GEFzRhaG3r9pQ4-23" target="3BNdl_GEFzRhaG3r9pQ4-34">
          <mxGeometry relative="1" as="geometry" />
        </mxCell>
        <mxCell id="3BNdl_GEFzRhaG3r9pQ4-23" value="Modified&lt;br&gt;Neck" style="rounded=1;whiteSpace=wrap;html=1;" vertex="1" parent="1">
          <mxGeometry x="719" y="150" width="120" height="60" as="geometry" />
        </mxCell>
        <mxCell id="3BNdl_GEFzRhaG3r9pQ4-31" value="" style="edgeStyle=orthogonalEdgeStyle;rounded=0;orthogonalLoop=1;jettySize=auto;html=1;entryX=0;entryY=0.5;entryDx=0;entryDy=0;" edge="1" parent="1" source="3BNdl_GEFzRhaG3r9pQ4-27" target="3BNdl_GEFzRhaG3r9pQ4-30">
          <mxGeometry relative="1" as="geometry" />
        </mxCell>
        <mxCell id="3BNdl_GEFzRhaG3r9pQ4-33" value="" style="edgeStyle=orthogonalEdgeStyle;rounded=0;orthogonalLoop=1;jettySize=auto;html=1;entryX=0;entryY=0.5;entryDx=0;entryDy=0;" edge="1" parent="1" source="3BNdl_GEFzRhaG3r9pQ4-27" target="3BNdl_GEFzRhaG3r9pQ4-32">
          <mxGeometry relative="1" as="geometry" />
        </mxCell>
        <mxCell id="3BNdl_GEFzRhaG3r9pQ4-27" value="Modified Head" style="rounded=1;whiteSpace=wrap;html=1;" vertex="1" parent="1">
          <mxGeometry x="880" y="150" width="120" height="60" as="geometry" />
        </mxCell>
        <mxCell id="3BNdl_GEFzRhaG3r9pQ4-28" value="Short BiFPN" style="rounded=1;whiteSpace=wrap;html=1;" vertex="1" parent="1">
          <mxGeometry x="640" y="360" width="120" height="60" as="geometry" />
        </mxCell>
        <mxCell id="3BNdl_GEFzRhaG3r9pQ4-30" value="XGBoost" style="rounded=1;whiteSpace=wrap;html=1;" vertex="1" parent="1">
          <mxGeometry x="960" y="240" width="120" height="60" as="geometry" />
        </mxCell>
        <mxCell id="3BNdl_GEFzRhaG3r9pQ4-32" value="Varifocal?" style="rounded=1;whiteSpace=wrap;html=1;" vertex="1" parent="1">
          <mxGeometry x="960" y="320" width="120" height="60" as="geometry" />
        </mxCell>
        <mxCell id="3BNdl_GEFzRhaG3r9pQ4-34" value="Modified&lt;br&gt;Neck" style="rounded=1;whiteSpace=wrap;html=1;" vertex="1" parent="1">
          <mxGeometry x="800" y="360" width="120" height="60" as="geometry" />
        </mxCell>
        <mxCell id="3BNdl_GEFzRhaG3r9pQ4-36" value="PAnet" style="rounded=1;whiteSpace=wrap;html=1;" vertex="1" parent="1">
          <mxGeometry x="360" y="560" width="120" height="60" as="geometry" />
        </mxCell>
        <mxCell id="3BNdl_GEFzRhaG3r9pQ4-38" value="NAS FPN" style="rounded=1;whiteSpace=wrap;html=1;" vertex="1" parent="1">
          <mxGeometry x="510" y="560" width="120" height="60" as="geometry" />
        </mxCell>
        <mxCell id="3BNdl_GEFzRhaG3r9pQ4-42" value="&lt;blockquote style=&quot;margin: 0 0 0 40px; border: none; padding: 0px;&quot;&gt;&lt;/blockquote&gt;&lt;span style=&quot;background-color: initial;&quot;&gt;Input layer size&lt;/span&gt;&lt;br&gt;&lt;span style=&quot;background-color: initial;&quot;&gt;Relu6 act. function&lt;/span&gt;" style="rounded=1;whiteSpace=wrap;html=1;align=center;" vertex="1" parent="1">
          <mxGeometry x="520" y="180" width="120" height="60" as="geometry" />
        </mxCell>
      </root>
    </mxGraphModel>
  </diagram>
  <diagram id="_BE6PhbbxH7V8y9McZRp" name="effdet">
    <mxGraphModel dx="1434" dy="845" grid="1" gridSize="10" guides="1" tooltips="1" connect="1" arrows="1" fold="1" page="1" pageScale="1" pageWidth="1654" pageHeight="1169" math="0" shadow="0">
      <root>
        <mxCell id="0" />
        <mxCell id="1" parent="0" />
        <mxCell id="MW5vYafI3tXqi2waWJN--19" style="edgeStyle=orthogonalEdgeStyle;rounded=0;orthogonalLoop=1;jettySize=auto;html=1;entryX=0.5;entryY=1;entryDx=0;entryDy=0;" edge="1" parent="1" source="MW5vYafI3tXqi2waWJN--1" target="MW5vYafI3tXqi2waWJN--2">
          <mxGeometry relative="1" as="geometry" />
        </mxCell>
        <mxCell id="MW5vYafI3tXqi2waWJN--1" value="" style="rounded=0;whiteSpace=wrap;html=1;labelBackgroundColor=default;" vertex="1" parent="1">
          <mxGeometry x="80" y="540" width="320" height="10" as="geometry" />
        </mxCell>
        <mxCell id="MW5vYafI3tXqi2waWJN--20" style="edgeStyle=orthogonalEdgeStyle;rounded=0;orthogonalLoop=1;jettySize=auto;html=1;entryX=0.5;entryY=1;entryDx=0;entryDy=0;" edge="1" parent="1" source="MW5vYafI3tXqi2waWJN--2" target="MW5vYafI3tXqi2waWJN--3">
          <mxGeometry relative="1" as="geometry" />
        </mxCell>
        <mxCell id="MW5vYafI3tXqi2waWJN--2" value="" style="rounded=0;whiteSpace=wrap;html=1;labelBackgroundColor=default;" vertex="1" parent="1">
          <mxGeometry x="120" y="490" width="240" height="10" as="geometry" />
        </mxCell>
        <mxCell id="MW5vYafI3tXqi2waWJN--21" style="edgeStyle=orthogonalEdgeStyle;rounded=0;orthogonalLoop=1;jettySize=auto;html=1;entryX=0.5;entryY=1;entryDx=0;entryDy=0;" edge="1" parent="1" source="MW5vYafI3tXqi2waWJN--3" target="MW5vYafI3tXqi2waWJN--4">
          <mxGeometry relative="1" as="geometry" />
        </mxCell>
        <mxCell id="MW5vYafI3tXqi2waWJN--66" style="edgeStyle=orthogonalEdgeStyle;rounded=0;orthogonalLoop=1;jettySize=auto;html=1;entryX=0;entryY=0.5;entryDx=0;entryDy=0;" edge="1" parent="1" source="MW5vYafI3tXqi2waWJN--3" target="MW5vYafI3tXqi2waWJN--25">
          <mxGeometry relative="1" as="geometry">
            <Array as="points">
              <mxPoint x="240" y="400" />
            </Array>
          </mxGeometry>
        </mxCell>
        <mxCell id="MW5vYafI3tXqi2waWJN--3" value="" style="rounded=0;whiteSpace=wrap;html=1;labelBackgroundColor=default;fillColor=#cb2c3c;fillStyle=solid;" vertex="1" parent="1">
          <mxGeometry x="140" y="430" width="200" height="10" as="geometry" />
        </mxCell>
        <mxCell id="MW5vYafI3tXqi2waWJN--22" style="edgeStyle=orthogonalEdgeStyle;rounded=0;orthogonalLoop=1;jettySize=auto;html=1;entryX=0.5;entryY=1;entryDx=0;entryDy=0;" edge="1" parent="1" source="MW5vYafI3tXqi2waWJN--4" target="MW5vYafI3tXqi2waWJN--5">
          <mxGeometry relative="1" as="geometry" />
        </mxCell>
        <mxCell id="MW5vYafI3tXqi2waWJN--65" style="edgeStyle=orthogonalEdgeStyle;rounded=0;orthogonalLoop=1;jettySize=auto;html=1;entryX=0;entryY=0.5;entryDx=0;entryDy=0;" edge="1" parent="1" source="MW5vYafI3tXqi2waWJN--4" target="MW5vYafI3tXqi2waWJN--26">
          <mxGeometry relative="1" as="geometry">
            <Array as="points">
              <mxPoint x="240" y="340" />
            </Array>
          </mxGeometry>
        </mxCell>
        <mxCell id="MW5vYafI3tXqi2waWJN--4" value="" style="rounded=0;whiteSpace=wrap;html=1;labelBackgroundColor=default;fillColor=#7c4583;fillStyle=solid;" vertex="1" parent="1">
          <mxGeometry x="160" y="370" width="160" height="10" as="geometry" />
        </mxCell>
        <mxCell id="MW5vYafI3tXqi2waWJN--23" style="edgeStyle=orthogonalEdgeStyle;rounded=0;orthogonalLoop=1;jettySize=auto;html=1;entryX=0.5;entryY=1;entryDx=0;entryDy=0;" edge="1" parent="1" source="MW5vYafI3tXqi2waWJN--5" target="MW5vYafI3tXqi2waWJN--6">
          <mxGeometry relative="1" as="geometry" />
        </mxCell>
        <mxCell id="MW5vYafI3tXqi2waWJN--64" style="edgeStyle=orthogonalEdgeStyle;rounded=0;orthogonalLoop=1;jettySize=auto;html=1;entryX=0;entryY=0.5;entryDx=0;entryDy=0;" edge="1" parent="1" source="MW5vYafI3tXqi2waWJN--5" target="MW5vYafI3tXqi2waWJN--27">
          <mxGeometry relative="1" as="geometry">
            <Array as="points">
              <mxPoint x="240" y="280" />
            </Array>
          </mxGeometry>
        </mxCell>
        <mxCell id="MW5vYafI3tXqi2waWJN--5" value="" style="rounded=0;whiteSpace=wrap;html=1;labelBackgroundColor=default;fillColor=#a2db7a;" vertex="1" parent="1">
          <mxGeometry x="180" y="310" width="120" height="10" as="geometry" />
        </mxCell>
        <mxCell id="MW5vYafI3tXqi2waWJN--24" style="edgeStyle=orthogonalEdgeStyle;rounded=0;orthogonalLoop=1;jettySize=auto;html=1;entryX=0.5;entryY=1;entryDx=0;entryDy=0;" edge="1" parent="1" source="MW5vYafI3tXqi2waWJN--6" target="MW5vYafI3tXqi2waWJN--7">
          <mxGeometry relative="1" as="geometry" />
        </mxCell>
        <mxCell id="MW5vYafI3tXqi2waWJN--63" style="edgeStyle=orthogonalEdgeStyle;rounded=0;orthogonalLoop=1;jettySize=auto;html=1;entryX=0;entryY=0.5;entryDx=0;entryDy=0;" edge="1" parent="1" source="MW5vYafI3tXqi2waWJN--6" target="MW5vYafI3tXqi2waWJN--28">
          <mxGeometry relative="1" as="geometry">
            <Array as="points">
              <mxPoint x="240" y="220" />
            </Array>
          </mxGeometry>
        </mxCell>
        <mxCell id="MW5vYafI3tXqi2waWJN--6" value="" style="rounded=0;whiteSpace=wrap;html=1;labelBackgroundColor=default;fillColor=#b0d8ee;" vertex="1" parent="1">
          <mxGeometry x="200" y="250" width="80" height="10" as="geometry" />
        </mxCell>
        <mxCell id="MW5vYafI3tXqi2waWJN--62" style="edgeStyle=orthogonalEdgeStyle;rounded=0;orthogonalLoop=1;jettySize=auto;html=1;entryX=0;entryY=0.5;entryDx=0;entryDy=0;" edge="1" parent="1" source="MW5vYafI3tXqi2waWJN--7" target="MW5vYafI3tXqi2waWJN--29">
          <mxGeometry relative="1" as="geometry">
            <Array as="points">
              <mxPoint x="240" y="160" />
            </Array>
          </mxGeometry>
        </mxCell>
        <mxCell id="MW5vYafI3tXqi2waWJN--7" value="" style="rounded=0;whiteSpace=wrap;html=1;labelBackgroundColor=#000000;fillColor=#000000;" vertex="1" parent="1">
          <mxGeometry x="220" y="190" width="40" height="10" as="geometry" />
        </mxCell>
        <mxCell id="MW5vYafI3tXqi2waWJN--8" value="P&lt;sub&gt;1&lt;/sub&gt; / 2" style="text;html=1;strokeColor=none;fillColor=none;align=center;verticalAlign=middle;whiteSpace=wrap;rounded=0;" vertex="1" parent="1">
          <mxGeometry x="20" y="520" width="60" height="30" as="geometry" />
        </mxCell>
        <mxCell id="MW5vYafI3tXqi2waWJN--9" value="P&lt;sub&gt;2&lt;/sub&gt; / 4" style="text;html=1;strokeColor=none;fillColor=none;align=center;verticalAlign=middle;whiteSpace=wrap;rounded=0;" vertex="1" parent="1">
          <mxGeometry x="60" y="470" width="60" height="30" as="geometry" />
        </mxCell>
        <mxCell id="MW5vYafI3tXqi2waWJN--10" value="P&lt;sub&gt;3&lt;/sub&gt; / 8" style="text;html=1;strokeColor=none;fillColor=none;align=center;verticalAlign=middle;whiteSpace=wrap;rounded=0;" vertex="1" parent="1">
          <mxGeometry x="80" y="410" width="60" height="30" as="geometry" />
        </mxCell>
        <mxCell id="MW5vYafI3tXqi2waWJN--11" value="P&lt;sub&gt;4&lt;/sub&gt; / 16" style="text;html=1;strokeColor=none;fillColor=none;align=center;verticalAlign=middle;whiteSpace=wrap;rounded=0;" vertex="1" parent="1">
          <mxGeometry x="100" y="350" width="60" height="30" as="geometry" />
        </mxCell>
        <mxCell id="MW5vYafI3tXqi2waWJN--12" value="P&lt;sub&gt;5&lt;/sub&gt; / 32" style="text;html=1;strokeColor=none;fillColor=none;align=center;verticalAlign=middle;whiteSpace=wrap;rounded=0;" vertex="1" parent="1">
          <mxGeometry x="120" y="290" width="60" height="30" as="geometry" />
        </mxCell>
        <mxCell id="MW5vYafI3tXqi2waWJN--13" value="P&lt;sub&gt;6&lt;/sub&gt; / 64" style="text;html=1;strokeColor=none;fillColor=none;align=center;verticalAlign=middle;whiteSpace=wrap;rounded=0;" vertex="1" parent="1">
          <mxGeometry x="140" y="230" width="60" height="30" as="geometry" />
        </mxCell>
        <mxCell id="MW5vYafI3tXqi2waWJN--14" value="P&lt;sub&gt;7&lt;/sub&gt; / 128" style="text;html=1;strokeColor=none;fillColor=none;align=center;verticalAlign=middle;whiteSpace=wrap;rounded=0;" vertex="1" parent="1">
          <mxGeometry x="160" y="170" width="60" height="30" as="geometry" />
        </mxCell>
        <mxCell id="MW5vYafI3tXqi2waWJN--18" style="edgeStyle=orthogonalEdgeStyle;rounded=0;orthogonalLoop=1;jettySize=auto;html=1;entryX=0.5;entryY=1;entryDx=0;entryDy=0;" edge="1" parent="1" source="MW5vYafI3tXqi2waWJN--15" target="MW5vYafI3tXqi2waWJN--1">
          <mxGeometry relative="1" as="geometry" />
        </mxCell>
        <mxCell id="MW5vYafI3tXqi2waWJN--15" value="" style="rounded=0;whiteSpace=wrap;html=1;labelBackgroundColor=default;" vertex="1" parent="1">
          <mxGeometry x="60" y="590" width="360" height="10" as="geometry" />
        </mxCell>
        <mxCell id="MW5vYafI3tXqi2waWJN--16" value="Input" style="text;html=1;strokeColor=none;fillColor=none;align=center;verticalAlign=middle;whiteSpace=wrap;rounded=0;" vertex="1" parent="1">
          <mxGeometry y="570" width="60" height="30" as="geometry" />
        </mxCell>
        <mxCell id="MW5vYafI3tXqi2waWJN--17" value="EfficientNet backbone" style="text;html=1;strokeColor=none;fillColor=none;align=center;verticalAlign=middle;whiteSpace=wrap;rounded=0;" vertex="1" parent="1">
          <mxGeometry x="160" y="610" width="160" height="30" as="geometry" />
        </mxCell>
        <mxCell id="MW5vYafI3tXqi2waWJN--48" style="edgeStyle=orthogonalEdgeStyle;rounded=0;orthogonalLoop=1;jettySize=auto;html=1;entryX=0;entryY=0.5;entryDx=0;entryDy=0;" edge="1" parent="1" source="MW5vYafI3tXqi2waWJN--25" target="MW5vYafI3tXqi2waWJN--35">
          <mxGeometry relative="1" as="geometry" />
        </mxCell>
        <mxCell id="MW5vYafI3tXqi2waWJN--25" value="" style="ellipse;whiteSpace=wrap;html=1;aspect=fixed;fillColor=#000000;" vertex="1" parent="1">
          <mxGeometry x="430" y="390" width="20" height="20" as="geometry" />
        </mxCell>
        <mxCell id="MW5vYafI3tXqi2waWJN--49" style="edgeStyle=orthogonalEdgeStyle;rounded=0;orthogonalLoop=1;jettySize=auto;html=1;entryX=0;entryY=0.5;entryDx=0;entryDy=0;" edge="1" parent="1" source="MW5vYafI3tXqi2waWJN--26" target="MW5vYafI3tXqi2waWJN--31">
          <mxGeometry relative="1" as="geometry" />
        </mxCell>
        <mxCell id="MW5vYafI3tXqi2waWJN--57" style="edgeStyle=orthogonalEdgeStyle;rounded=0;orthogonalLoop=1;jettySize=auto;html=1;entryX=0;entryY=0;entryDx=0;entryDy=0;curved=1;" edge="1" parent="1" source="MW5vYafI3tXqi2waWJN--26" target="MW5vYafI3tXqi2waWJN--36">
          <mxGeometry relative="1" as="geometry">
            <Array as="points">
              <mxPoint x="440" y="310" />
              <mxPoint x="593" y="310" />
            </Array>
          </mxGeometry>
        </mxCell>
        <mxCell id="MW5vYafI3tXqi2waWJN--26" value="" style="ellipse;whiteSpace=wrap;html=1;aspect=fixed;fillColor=#000000;" vertex="1" parent="1">
          <mxGeometry x="430" y="330" width="20" height="20" as="geometry" />
        </mxCell>
        <mxCell id="MW5vYafI3tXqi2waWJN--50" style="edgeStyle=orthogonalEdgeStyle;rounded=0;orthogonalLoop=1;jettySize=auto;html=1;entryX=0;entryY=0.5;entryDx=0;entryDy=0;" edge="1" parent="1" source="MW5vYafI3tXqi2waWJN--27" target="MW5vYafI3tXqi2waWJN--32">
          <mxGeometry relative="1" as="geometry" />
        </mxCell>
        <mxCell id="MW5vYafI3tXqi2waWJN--58" style="edgeStyle=orthogonalEdgeStyle;rounded=0;orthogonalLoop=1;jettySize=auto;html=1;entryX=0;entryY=0;entryDx=0;entryDy=0;curved=1;" edge="1" parent="1" source="MW5vYafI3tXqi2waWJN--27" target="MW5vYafI3tXqi2waWJN--37">
          <mxGeometry relative="1" as="geometry">
            <Array as="points">
              <mxPoint x="440" y="250" />
              <mxPoint x="593" y="250" />
            </Array>
          </mxGeometry>
        </mxCell>
        <mxCell id="MW5vYafI3tXqi2waWJN--27" value="" style="ellipse;whiteSpace=wrap;html=1;aspect=fixed;fillColor=#000000;" vertex="1" parent="1">
          <mxGeometry x="430" y="270" width="20" height="20" as="geometry" />
        </mxCell>
        <mxCell id="MW5vYafI3tXqi2waWJN--51" style="edgeStyle=orthogonalEdgeStyle;rounded=0;orthogonalLoop=1;jettySize=auto;html=1;" edge="1" parent="1" source="MW5vYafI3tXqi2waWJN--28" target="MW5vYafI3tXqi2waWJN--33">
          <mxGeometry relative="1" as="geometry" />
        </mxCell>
        <mxCell id="MW5vYafI3tXqi2waWJN--59" style="edgeStyle=orthogonalEdgeStyle;rounded=0;orthogonalLoop=1;jettySize=auto;html=1;entryX=0;entryY=0;entryDx=0;entryDy=0;curved=1;" edge="1" parent="1" source="MW5vYafI3tXqi2waWJN--28" target="MW5vYafI3tXqi2waWJN--38">
          <mxGeometry relative="1" as="geometry">
            <Array as="points">
              <mxPoint x="440" y="190" />
              <mxPoint x="593" y="190" />
            </Array>
          </mxGeometry>
        </mxCell>
        <mxCell id="MW5vYafI3tXqi2waWJN--28" value="" style="ellipse;whiteSpace=wrap;html=1;aspect=fixed;fillColor=#000000;" vertex="1" parent="1">
          <mxGeometry x="430" y="210" width="20" height="20" as="geometry" />
        </mxCell>
        <mxCell id="MW5vYafI3tXqi2waWJN--40" style="edgeStyle=orthogonalEdgeStyle;rounded=0;orthogonalLoop=1;jettySize=auto;html=1;entryX=0;entryY=0.5;entryDx=0;entryDy=0;" edge="1" parent="1" source="MW5vYafI3tXqi2waWJN--29" target="MW5vYafI3tXqi2waWJN--39">
          <mxGeometry relative="1" as="geometry" />
        </mxCell>
        <mxCell id="MW5vYafI3tXqi2waWJN--41" style="rounded=0;orthogonalLoop=1;jettySize=auto;html=1;strokeColor=#A4C1D1;strokeWidth=2;" edge="1" parent="1" source="MW5vYafI3tXqi2waWJN--29" target="MW5vYafI3tXqi2waWJN--33">
          <mxGeometry relative="1" as="geometry" />
        </mxCell>
        <mxCell id="MW5vYafI3tXqi2waWJN--29" value="" style="ellipse;whiteSpace=wrap;html=1;aspect=fixed;fillColor=#000000;" vertex="1" parent="1">
          <mxGeometry x="430" y="150" width="20" height="20" as="geometry" />
        </mxCell>
        <mxCell id="MW5vYafI3tXqi2waWJN--47" style="rounded=0;orthogonalLoop=1;jettySize=auto;html=1;entryX=0;entryY=0;entryDx=0;entryDy=0;" edge="1" parent="1" source="MW5vYafI3tXqi2waWJN--31" target="MW5vYafI3tXqi2waWJN--35">
          <mxGeometry relative="1" as="geometry" />
        </mxCell>
        <mxCell id="MW5vYafI3tXqi2waWJN--56" style="edgeStyle=orthogonalEdgeStyle;rounded=0;orthogonalLoop=1;jettySize=auto;html=1;entryX=0;entryY=0.5;entryDx=0;entryDy=0;" edge="1" parent="1" source="MW5vYafI3tXqi2waWJN--31" target="MW5vYafI3tXqi2waWJN--36">
          <mxGeometry relative="1" as="geometry" />
        </mxCell>
        <mxCell id="MW5vYafI3tXqi2waWJN--31" value="" style="ellipse;whiteSpace=wrap;html=1;aspect=fixed;fillColor=#000000;" vertex="1" parent="1">
          <mxGeometry x="510" y="330" width="20" height="20" as="geometry" />
        </mxCell>
        <mxCell id="MW5vYafI3tXqi2waWJN--46" style="edgeStyle=orthogonalEdgeStyle;rounded=0;orthogonalLoop=1;jettySize=auto;html=1;strokeColor=#A4C1D1;" edge="1" parent="1" source="MW5vYafI3tXqi2waWJN--32" target="MW5vYafI3tXqi2waWJN--31">
          <mxGeometry relative="1" as="geometry" />
        </mxCell>
        <mxCell id="MW5vYafI3tXqi2waWJN--55" style="edgeStyle=orthogonalEdgeStyle;rounded=0;orthogonalLoop=1;jettySize=auto;html=1;entryX=0;entryY=0.5;entryDx=0;entryDy=0;" edge="1" parent="1" source="MW5vYafI3tXqi2waWJN--32" target="MW5vYafI3tXqi2waWJN--37">
          <mxGeometry relative="1" as="geometry" />
        </mxCell>
        <mxCell id="MW5vYafI3tXqi2waWJN--32" value="" style="ellipse;whiteSpace=wrap;html=1;aspect=fixed;fillColor=#000000;" vertex="1" parent="1">
          <mxGeometry x="510" y="270" width="20" height="20" as="geometry" />
        </mxCell>
        <mxCell id="MW5vYafI3tXqi2waWJN--43" style="edgeStyle=orthogonalEdgeStyle;rounded=0;orthogonalLoop=1;jettySize=auto;html=1;entryX=0;entryY=0.5;entryDx=0;entryDy=0;" edge="1" parent="1" source="MW5vYafI3tXqi2waWJN--33" target="MW5vYafI3tXqi2waWJN--38">
          <mxGeometry relative="1" as="geometry" />
        </mxCell>
        <mxCell id="MW5vYafI3tXqi2waWJN--44" style="edgeStyle=orthogonalEdgeStyle;rounded=0;orthogonalLoop=1;jettySize=auto;html=1;entryX=0.5;entryY=0;entryDx=0;entryDy=0;strokeColor=#A4C1D1;" edge="1" parent="1" source="MW5vYafI3tXqi2waWJN--33" target="MW5vYafI3tXqi2waWJN--32">
          <mxGeometry relative="1" as="geometry" />
        </mxCell>
        <mxCell id="MW5vYafI3tXqi2waWJN--33" value="" style="ellipse;whiteSpace=wrap;html=1;aspect=fixed;fillColor=#A4C1D1;" vertex="1" parent="1">
          <mxGeometry x="510" y="210" width="20" height="20" as="geometry" />
        </mxCell>
        <mxCell id="MW5vYafI3tXqi2waWJN--54" style="edgeStyle=orthogonalEdgeStyle;rounded=0;orthogonalLoop=1;jettySize=auto;html=1;strokeColor=#FF0000;" edge="1" parent="1" source="MW5vYafI3tXqi2waWJN--35" target="MW5vYafI3tXqi2waWJN--36">
          <mxGeometry relative="1" as="geometry" />
        </mxCell>
        <mxCell id="MW5vYafI3tXqi2waWJN--35" value="" style="ellipse;whiteSpace=wrap;html=1;aspect=fixed;fillColor=#ff8b99;" vertex="1" parent="1">
          <mxGeometry x="590" y="390" width="20" height="20" as="geometry" />
        </mxCell>
        <mxCell id="MW5vYafI3tXqi2waWJN--53" style="edgeStyle=orthogonalEdgeStyle;rounded=0;orthogonalLoop=1;jettySize=auto;html=1;strokeColor=#FF0000;" edge="1" parent="1" source="MW5vYafI3tXqi2waWJN--36" target="MW5vYafI3tXqi2waWJN--37">
          <mxGeometry relative="1" as="geometry" />
        </mxCell>
        <mxCell id="MW5vYafI3tXqi2waWJN--36" value="" style="ellipse;whiteSpace=wrap;html=1;aspect=fixed;fillColor=#c596cb;" vertex="1" parent="1">
          <mxGeometry x="590" y="330" width="20" height="20" as="geometry" />
        </mxCell>
        <mxCell id="MW5vYafI3tXqi2waWJN--52" style="edgeStyle=orthogonalEdgeStyle;rounded=0;orthogonalLoop=1;jettySize=auto;html=1;entryX=0.5;entryY=1;entryDx=0;entryDy=0;strokeColor=#FF0000;" edge="1" parent="1" source="MW5vYafI3tXqi2waWJN--37" target="MW5vYafI3tXqi2waWJN--38">
          <mxGeometry relative="1" as="geometry" />
        </mxCell>
        <mxCell id="MW5vYafI3tXqi2waWJN--37" value="" style="ellipse;whiteSpace=wrap;html=1;aspect=fixed;fillColor=#215200;" vertex="1" parent="1">
          <mxGeometry x="590" y="270" width="20" height="20" as="geometry" />
        </mxCell>
        <mxCell id="MW5vYafI3tXqi2waWJN--42" style="edgeStyle=orthogonalEdgeStyle;rounded=0;orthogonalLoop=1;jettySize=auto;html=1;entryX=0.5;entryY=1;entryDx=0;entryDy=0;strokeColor=#FF0000;" edge="1" parent="1" source="MW5vYafI3tXqi2waWJN--38" target="MW5vYafI3tXqi2waWJN--39">
          <mxGeometry relative="1" as="geometry" />
        </mxCell>
        <mxCell id="MW5vYafI3tXqi2waWJN--38" value="" style="ellipse;whiteSpace=wrap;html=1;aspect=fixed;fillColor=#A4C1D1;fillStyle=auto;" vertex="1" parent="1">
          <mxGeometry x="590" y="210" width="20" height="20" as="geometry" />
        </mxCell>
        <mxCell id="MW5vYafI3tXqi2waWJN--39" value="" style="ellipse;whiteSpace=wrap;html=1;aspect=fixed;fillColor=#660000;" vertex="1" parent="1">
          <mxGeometry x="590" y="150" width="20" height="20" as="geometry" />
        </mxCell>
        <mxCell id="MW5vYafI3tXqi2waWJN--60" value="" style="rounded=0;whiteSpace=wrap;html=1;fillColor=none;dashed=1;" vertex="1" parent="1">
          <mxGeometry x="480" y="120" width="160" height="320" as="geometry" />
        </mxCell>
        <mxCell id="MW5vYafI3tXqi2waWJN--61" value="Lapisan BiFPN" style="text;html=1;strokeColor=none;fillColor=none;align=center;verticalAlign=middle;whiteSpace=wrap;rounded=0;" vertex="1" parent="1">
          <mxGeometry x="530" y="450" width="60" height="30" as="geometry" />
        </mxCell>
        <mxCell id="MW5vYafI3tXqi2waWJN--87" style="edgeStyle=orthogonalEdgeStyle;rounded=0;orthogonalLoop=1;jettySize=auto;html=1;entryX=0;entryY=0.5;entryDx=0;entryDy=0;" edge="1" parent="1" target="MW5vYafI3tXqi2waWJN--106">
          <mxGeometry relative="1" as="geometry">
            <mxPoint x="611" y="400" as="sourcePoint" />
          </mxGeometry>
        </mxCell>
        <mxCell id="MW5vYafI3tXqi2waWJN--88" style="edgeStyle=orthogonalEdgeStyle;rounded=0;orthogonalLoop=1;jettySize=auto;html=1;entryX=0;entryY=0.5;entryDx=0;entryDy=0;" edge="1" parent="1" target="MW5vYafI3tXqi2waWJN--98">
          <mxGeometry relative="1" as="geometry">
            <mxPoint x="611" y="340" as="sourcePoint" />
          </mxGeometry>
        </mxCell>
        <mxCell id="MW5vYafI3tXqi2waWJN--89" style="edgeStyle=orthogonalEdgeStyle;rounded=0;orthogonalLoop=1;jettySize=auto;html=1;entryX=0;entryY=0;entryDx=0;entryDy=0;curved=1;" edge="1" parent="1" target="MW5vYafI3tXqi2waWJN--108">
          <mxGeometry relative="1" as="geometry">
            <mxPoint x="601" y="330" as="sourcePoint" />
            <Array as="points">
              <mxPoint x="601" y="310" />
              <mxPoint x="754" y="310" />
            </Array>
          </mxGeometry>
        </mxCell>
        <mxCell id="MW5vYafI3tXqi2waWJN--90" style="edgeStyle=orthogonalEdgeStyle;rounded=0;orthogonalLoop=1;jettySize=auto;html=1;entryX=0;entryY=0.5;entryDx=0;entryDy=0;" edge="1" parent="1" target="MW5vYafI3tXqi2waWJN--101">
          <mxGeometry relative="1" as="geometry">
            <mxPoint x="611" y="280" as="sourcePoint" />
          </mxGeometry>
        </mxCell>
        <mxCell id="MW5vYafI3tXqi2waWJN--91" style="edgeStyle=orthogonalEdgeStyle;rounded=0;orthogonalLoop=1;jettySize=auto;html=1;entryX=0;entryY=0;entryDx=0;entryDy=0;curved=1;" edge="1" parent="1" target="MW5vYafI3tXqi2waWJN--110">
          <mxGeometry relative="1" as="geometry">
            <mxPoint x="601" y="270" as="sourcePoint" />
            <Array as="points">
              <mxPoint x="601" y="250" />
              <mxPoint x="754" y="250" />
            </Array>
          </mxGeometry>
        </mxCell>
        <mxCell id="MW5vYafI3tXqi2waWJN--92" style="edgeStyle=orthogonalEdgeStyle;rounded=0;orthogonalLoop=1;jettySize=auto;html=1;" edge="1" parent="1" target="MW5vYafI3tXqi2waWJN--104">
          <mxGeometry relative="1" as="geometry">
            <mxPoint x="611" y="220" as="sourcePoint" />
          </mxGeometry>
        </mxCell>
        <mxCell id="MW5vYafI3tXqi2waWJN--93" style="edgeStyle=orthogonalEdgeStyle;rounded=0;orthogonalLoop=1;jettySize=auto;html=1;entryX=0;entryY=0;entryDx=0;entryDy=0;curved=1;" edge="1" parent="1" target="MW5vYafI3tXqi2waWJN--112">
          <mxGeometry relative="1" as="geometry">
            <mxPoint x="601" y="210" as="sourcePoint" />
            <Array as="points">
              <mxPoint x="601" y="190" />
              <mxPoint x="754" y="190" />
            </Array>
          </mxGeometry>
        </mxCell>
        <mxCell id="MW5vYafI3tXqi2waWJN--94" style="edgeStyle=orthogonalEdgeStyle;rounded=0;orthogonalLoop=1;jettySize=auto;html=1;entryX=0;entryY=0.5;entryDx=0;entryDy=0;" edge="1" parent="1" target="MW5vYafI3tXqi2waWJN--113">
          <mxGeometry relative="1" as="geometry">
            <mxPoint x="611" y="160" as="sourcePoint" />
          </mxGeometry>
        </mxCell>
        <mxCell id="MW5vYafI3tXqi2waWJN--95" style="rounded=0;orthogonalLoop=1;jettySize=auto;html=1;strokeColor=#A4C1D1;strokeWidth=2;" edge="1" parent="1" target="MW5vYafI3tXqi2waWJN--104">
          <mxGeometry relative="1" as="geometry">
            <mxPoint x="609" y="166" as="sourcePoint" />
          </mxGeometry>
        </mxCell>
        <mxCell id="MW5vYafI3tXqi2waWJN--96" style="rounded=0;orthogonalLoop=1;jettySize=auto;html=1;entryX=0;entryY=0;entryDx=0;entryDy=0;" edge="1" parent="1" source="MW5vYafI3tXqi2waWJN--98" target="MW5vYafI3tXqi2waWJN--106">
          <mxGeometry relative="1" as="geometry" />
        </mxCell>
        <mxCell id="MW5vYafI3tXqi2waWJN--97" style="edgeStyle=orthogonalEdgeStyle;rounded=0;orthogonalLoop=1;jettySize=auto;html=1;entryX=0;entryY=0.5;entryDx=0;entryDy=0;" edge="1" parent="1" source="MW5vYafI3tXqi2waWJN--98" target="MW5vYafI3tXqi2waWJN--108">
          <mxGeometry relative="1" as="geometry" />
        </mxCell>
        <mxCell id="MW5vYafI3tXqi2waWJN--98" value="" style="ellipse;whiteSpace=wrap;html=1;aspect=fixed;fillColor=#000000;" vertex="1" parent="1">
          <mxGeometry x="671" y="330" width="20" height="20" as="geometry" />
        </mxCell>
        <mxCell id="MW5vYafI3tXqi2waWJN--99" style="edgeStyle=orthogonalEdgeStyle;rounded=0;orthogonalLoop=1;jettySize=auto;html=1;strokeColor=#A4C1D1;" edge="1" parent="1" source="MW5vYafI3tXqi2waWJN--101" target="MW5vYafI3tXqi2waWJN--98">
          <mxGeometry relative="1" as="geometry" />
        </mxCell>
        <mxCell id="MW5vYafI3tXqi2waWJN--100" style="edgeStyle=orthogonalEdgeStyle;rounded=0;orthogonalLoop=1;jettySize=auto;html=1;entryX=0;entryY=0.5;entryDx=0;entryDy=0;" edge="1" parent="1" source="MW5vYafI3tXqi2waWJN--101" target="MW5vYafI3tXqi2waWJN--110">
          <mxGeometry relative="1" as="geometry" />
        </mxCell>
        <mxCell id="MW5vYafI3tXqi2waWJN--101" value="" style="ellipse;whiteSpace=wrap;html=1;aspect=fixed;fillColor=#000000;" vertex="1" parent="1">
          <mxGeometry x="671" y="270" width="20" height="20" as="geometry" />
        </mxCell>
        <mxCell id="MW5vYafI3tXqi2waWJN--102" style="edgeStyle=orthogonalEdgeStyle;rounded=0;orthogonalLoop=1;jettySize=auto;html=1;entryX=0;entryY=0.5;entryDx=0;entryDy=0;" edge="1" parent="1" source="MW5vYafI3tXqi2waWJN--104" target="MW5vYafI3tXqi2waWJN--112">
          <mxGeometry relative="1" as="geometry" />
        </mxCell>
        <mxCell id="MW5vYafI3tXqi2waWJN--103" style="edgeStyle=orthogonalEdgeStyle;rounded=0;orthogonalLoop=1;jettySize=auto;html=1;entryX=0.5;entryY=0;entryDx=0;entryDy=0;strokeColor=#A4C1D1;" edge="1" parent="1" source="MW5vYafI3tXqi2waWJN--104" target="MW5vYafI3tXqi2waWJN--101">
          <mxGeometry relative="1" as="geometry" />
        </mxCell>
        <mxCell id="MW5vYafI3tXqi2waWJN--104" value="" style="ellipse;whiteSpace=wrap;html=1;aspect=fixed;fillColor=#A4C1D1;" vertex="1" parent="1">
          <mxGeometry x="671" y="210" width="20" height="20" as="geometry" />
        </mxCell>
        <mxCell id="MW5vYafI3tXqi2waWJN--105" style="edgeStyle=orthogonalEdgeStyle;rounded=0;orthogonalLoop=1;jettySize=auto;html=1;strokeColor=#FF0000;" edge="1" parent="1" source="MW5vYafI3tXqi2waWJN--106" target="MW5vYafI3tXqi2waWJN--108">
          <mxGeometry relative="1" as="geometry" />
        </mxCell>
        <mxCell id="MW5vYafI3tXqi2waWJN--106" value="" style="ellipse;whiteSpace=wrap;html=1;aspect=fixed;fillColor=#ff8b99;" vertex="1" parent="1">
          <mxGeometry x="751" y="390" width="20" height="20" as="geometry" />
        </mxCell>
        <mxCell id="MW5vYafI3tXqi2waWJN--107" style="edgeStyle=orthogonalEdgeStyle;rounded=0;orthogonalLoop=1;jettySize=auto;html=1;strokeColor=#FF0000;" edge="1" parent="1" source="MW5vYafI3tXqi2waWJN--108" target="MW5vYafI3tXqi2waWJN--110">
          <mxGeometry relative="1" as="geometry" />
        </mxCell>
        <mxCell id="MW5vYafI3tXqi2waWJN--108" value="" style="ellipse;whiteSpace=wrap;html=1;aspect=fixed;fillColor=#c596cb;" vertex="1" parent="1">
          <mxGeometry x="751" y="330" width="20" height="20" as="geometry" />
        </mxCell>
        <mxCell id="MW5vYafI3tXqi2waWJN--109" style="edgeStyle=orthogonalEdgeStyle;rounded=0;orthogonalLoop=1;jettySize=auto;html=1;entryX=0.5;entryY=1;entryDx=0;entryDy=0;strokeColor=#FF0000;" edge="1" parent="1" source="MW5vYafI3tXqi2waWJN--110" target="MW5vYafI3tXqi2waWJN--112">
          <mxGeometry relative="1" as="geometry" />
        </mxCell>
        <mxCell id="MW5vYafI3tXqi2waWJN--110" value="" style="ellipse;whiteSpace=wrap;html=1;aspect=fixed;fillColor=#215200;" vertex="1" parent="1">
          <mxGeometry x="751" y="270" width="20" height="20" as="geometry" />
        </mxCell>
        <mxCell id="MW5vYafI3tXqi2waWJN--111" style="edgeStyle=orthogonalEdgeStyle;rounded=0;orthogonalLoop=1;jettySize=auto;html=1;entryX=0.5;entryY=1;entryDx=0;entryDy=0;strokeColor=#FF0000;" edge="1" parent="1" source="MW5vYafI3tXqi2waWJN--112" target="MW5vYafI3tXqi2waWJN--113">
          <mxGeometry relative="1" as="geometry" />
        </mxCell>
        <mxCell id="MW5vYafI3tXqi2waWJN--112" value="" style="ellipse;whiteSpace=wrap;html=1;aspect=fixed;fillColor=#A4C1D1;fillStyle=auto;" vertex="1" parent="1">
          <mxGeometry x="751" y="210" width="20" height="20" as="geometry" />
        </mxCell>
        <mxCell id="MW5vYafI3tXqi2waWJN--113" value="" style="ellipse;whiteSpace=wrap;html=1;aspect=fixed;fillColor=#660000;" vertex="1" parent="1">
          <mxGeometry x="751" y="150" width="20" height="20" as="geometry" />
        </mxCell>
        <mxCell id="MW5vYafI3tXqi2waWJN--114" style="edgeStyle=orthogonalEdgeStyle;rounded=0;orthogonalLoop=1;jettySize=auto;html=1;entryX=0;entryY=0.5;entryDx=0;entryDy=0;" edge="1" parent="1" target="MW5vYafI3tXqi2waWJN--133">
          <mxGeometry relative="1" as="geometry">
            <mxPoint x="771" y="400" as="sourcePoint" />
          </mxGeometry>
        </mxCell>
        <mxCell id="MW5vYafI3tXqi2waWJN--115" style="edgeStyle=orthogonalEdgeStyle;rounded=0;orthogonalLoop=1;jettySize=auto;html=1;entryX=0;entryY=0.5;entryDx=0;entryDy=0;" edge="1" parent="1" target="MW5vYafI3tXqi2waWJN--125">
          <mxGeometry relative="1" as="geometry">
            <mxPoint x="771" y="340" as="sourcePoint" />
          </mxGeometry>
        </mxCell>
        <mxCell id="MW5vYafI3tXqi2waWJN--116" style="edgeStyle=orthogonalEdgeStyle;rounded=0;orthogonalLoop=1;jettySize=auto;html=1;entryX=0;entryY=0;entryDx=0;entryDy=0;curved=1;" edge="1" parent="1" target="MW5vYafI3tXqi2waWJN--135">
          <mxGeometry relative="1" as="geometry">
            <mxPoint x="761" y="330" as="sourcePoint" />
            <Array as="points">
              <mxPoint x="761" y="310" />
              <mxPoint x="914" y="310" />
            </Array>
          </mxGeometry>
        </mxCell>
        <mxCell id="MW5vYafI3tXqi2waWJN--117" style="edgeStyle=orthogonalEdgeStyle;rounded=0;orthogonalLoop=1;jettySize=auto;html=1;entryX=0;entryY=0.5;entryDx=0;entryDy=0;" edge="1" parent="1" target="MW5vYafI3tXqi2waWJN--128">
          <mxGeometry relative="1" as="geometry">
            <mxPoint x="771" y="280" as="sourcePoint" />
          </mxGeometry>
        </mxCell>
        <mxCell id="MW5vYafI3tXqi2waWJN--118" style="edgeStyle=orthogonalEdgeStyle;rounded=0;orthogonalLoop=1;jettySize=auto;html=1;entryX=0;entryY=0;entryDx=0;entryDy=0;curved=1;" edge="1" parent="1" target="MW5vYafI3tXqi2waWJN--137">
          <mxGeometry relative="1" as="geometry">
            <mxPoint x="761" y="270" as="sourcePoint" />
            <Array as="points">
              <mxPoint x="761" y="250" />
              <mxPoint x="914" y="250" />
            </Array>
          </mxGeometry>
        </mxCell>
        <mxCell id="MW5vYafI3tXqi2waWJN--119" style="edgeStyle=orthogonalEdgeStyle;rounded=0;orthogonalLoop=1;jettySize=auto;html=1;" edge="1" parent="1" target="MW5vYafI3tXqi2waWJN--131">
          <mxGeometry relative="1" as="geometry">
            <mxPoint x="771" y="220" as="sourcePoint" />
          </mxGeometry>
        </mxCell>
        <mxCell id="MW5vYafI3tXqi2waWJN--120" style="edgeStyle=orthogonalEdgeStyle;rounded=0;orthogonalLoop=1;jettySize=auto;html=1;entryX=0;entryY=0;entryDx=0;entryDy=0;curved=1;" edge="1" parent="1" target="MW5vYafI3tXqi2waWJN--139">
          <mxGeometry relative="1" as="geometry">
            <mxPoint x="761" y="210" as="sourcePoint" />
            <Array as="points">
              <mxPoint x="761" y="190" />
              <mxPoint x="914" y="190" />
            </Array>
          </mxGeometry>
        </mxCell>
        <mxCell id="MW5vYafI3tXqi2waWJN--121" style="edgeStyle=orthogonalEdgeStyle;rounded=0;orthogonalLoop=1;jettySize=auto;html=1;entryX=0;entryY=0.5;entryDx=0;entryDy=0;" edge="1" parent="1" target="MW5vYafI3tXqi2waWJN--140">
          <mxGeometry relative="1" as="geometry">
            <mxPoint x="771" y="160" as="sourcePoint" />
          </mxGeometry>
        </mxCell>
        <mxCell id="MW5vYafI3tXqi2waWJN--122" style="rounded=0;orthogonalLoop=1;jettySize=auto;html=1;strokeColor=#A4C1D1;strokeWidth=2;" edge="1" parent="1" target="MW5vYafI3tXqi2waWJN--131">
          <mxGeometry relative="1" as="geometry">
            <mxPoint x="769" y="166" as="sourcePoint" />
          </mxGeometry>
        </mxCell>
        <mxCell id="MW5vYafI3tXqi2waWJN--123" style="rounded=0;orthogonalLoop=1;jettySize=auto;html=1;entryX=0;entryY=0;entryDx=0;entryDy=0;" edge="1" parent="1" source="MW5vYafI3tXqi2waWJN--125" target="MW5vYafI3tXqi2waWJN--133">
          <mxGeometry relative="1" as="geometry" />
        </mxCell>
        <mxCell id="MW5vYafI3tXqi2waWJN--124" style="edgeStyle=orthogonalEdgeStyle;rounded=0;orthogonalLoop=1;jettySize=auto;html=1;entryX=0;entryY=0.5;entryDx=0;entryDy=0;" edge="1" parent="1" source="MW5vYafI3tXqi2waWJN--125" target="MW5vYafI3tXqi2waWJN--135">
          <mxGeometry relative="1" as="geometry" />
        </mxCell>
        <mxCell id="MW5vYafI3tXqi2waWJN--125" value="" style="ellipse;whiteSpace=wrap;html=1;aspect=fixed;fillColor=#000000;" vertex="1" parent="1">
          <mxGeometry x="831" y="330" width="20" height="20" as="geometry" />
        </mxCell>
        <mxCell id="MW5vYafI3tXqi2waWJN--126" style="edgeStyle=orthogonalEdgeStyle;rounded=0;orthogonalLoop=1;jettySize=auto;html=1;strokeColor=#A4C1D1;" edge="1" parent="1" source="MW5vYafI3tXqi2waWJN--128" target="MW5vYafI3tXqi2waWJN--125">
          <mxGeometry relative="1" as="geometry" />
        </mxCell>
        <mxCell id="MW5vYafI3tXqi2waWJN--127" style="edgeStyle=orthogonalEdgeStyle;rounded=0;orthogonalLoop=1;jettySize=auto;html=1;entryX=0;entryY=0.5;entryDx=0;entryDy=0;" edge="1" parent="1" source="MW5vYafI3tXqi2waWJN--128" target="MW5vYafI3tXqi2waWJN--137">
          <mxGeometry relative="1" as="geometry" />
        </mxCell>
        <mxCell id="MW5vYafI3tXqi2waWJN--128" value="" style="ellipse;whiteSpace=wrap;html=1;aspect=fixed;fillColor=#000000;" vertex="1" parent="1">
          <mxGeometry x="831" y="270" width="20" height="20" as="geometry" />
        </mxCell>
        <mxCell id="MW5vYafI3tXqi2waWJN--129" style="edgeStyle=orthogonalEdgeStyle;rounded=0;orthogonalLoop=1;jettySize=auto;html=1;entryX=0;entryY=0.5;entryDx=0;entryDy=0;" edge="1" parent="1" source="MW5vYafI3tXqi2waWJN--131" target="MW5vYafI3tXqi2waWJN--139">
          <mxGeometry relative="1" as="geometry" />
        </mxCell>
        <mxCell id="MW5vYafI3tXqi2waWJN--130" style="edgeStyle=orthogonalEdgeStyle;rounded=0;orthogonalLoop=1;jettySize=auto;html=1;entryX=0.5;entryY=0;entryDx=0;entryDy=0;strokeColor=#A4C1D1;" edge="1" parent="1" source="MW5vYafI3tXqi2waWJN--131" target="MW5vYafI3tXqi2waWJN--128">
          <mxGeometry relative="1" as="geometry" />
        </mxCell>
        <mxCell id="MW5vYafI3tXqi2waWJN--131" value="" style="ellipse;whiteSpace=wrap;html=1;aspect=fixed;fillColor=#A4C1D1;" vertex="1" parent="1">
          <mxGeometry x="831" y="210" width="20" height="20" as="geometry" />
        </mxCell>
        <mxCell id="MW5vYafI3tXqi2waWJN--132" style="edgeStyle=orthogonalEdgeStyle;rounded=0;orthogonalLoop=1;jettySize=auto;html=1;strokeColor=#FF0000;" edge="1" parent="1" source="MW5vYafI3tXqi2waWJN--133" target="MW5vYafI3tXqi2waWJN--135">
          <mxGeometry relative="1" as="geometry" />
        </mxCell>
        <mxCell id="MW5vYafI3tXqi2waWJN--159" style="rounded=0;orthogonalLoop=1;jettySize=auto;html=1;entryX=0;entryY=0.5;entryDx=0;entryDy=0;dashed=1;" edge="1" parent="1" source="MW5vYafI3tXqi2waWJN--133" target="MW5vYafI3tXqi2waWJN--144">
          <mxGeometry relative="1" as="geometry" />
        </mxCell>
        <mxCell id="MW5vYafI3tXqi2waWJN--160" style="rounded=0;orthogonalLoop=1;jettySize=auto;html=1;entryX=0;entryY=0.5;entryDx=0;entryDy=0;dashed=1;" edge="1" parent="1" source="MW5vYafI3tXqi2waWJN--133" target="MW5vYafI3tXqi2waWJN--141">
          <mxGeometry relative="1" as="geometry" />
        </mxCell>
        <mxCell id="MW5vYafI3tXqi2waWJN--133" value="" style="ellipse;whiteSpace=wrap;html=1;aspect=fixed;fillColor=#ff8b99;" vertex="1" parent="1">
          <mxGeometry x="911" y="390" width="20" height="20" as="geometry" />
        </mxCell>
        <mxCell id="MW5vYafI3tXqi2waWJN--134" style="edgeStyle=orthogonalEdgeStyle;rounded=0;orthogonalLoop=1;jettySize=auto;html=1;strokeColor=#FF0000;" edge="1" parent="1" source="MW5vYafI3tXqi2waWJN--135" target="MW5vYafI3tXqi2waWJN--137">
          <mxGeometry relative="1" as="geometry" />
        </mxCell>
        <mxCell id="MW5vYafI3tXqi2waWJN--157" style="rounded=0;orthogonalLoop=1;jettySize=auto;html=1;entryX=0;entryY=0.5;entryDx=0;entryDy=0;dashed=1;" edge="1" parent="1" source="MW5vYafI3tXqi2waWJN--135" target="MW5vYafI3tXqi2waWJN--141">
          <mxGeometry relative="1" as="geometry" />
        </mxCell>
        <mxCell id="MW5vYafI3tXqi2waWJN--158" style="rounded=0;orthogonalLoop=1;jettySize=auto;html=1;entryX=0;entryY=0.5;entryDx=0;entryDy=0;dashed=1;" edge="1" parent="1" source="MW5vYafI3tXqi2waWJN--135" target="MW5vYafI3tXqi2waWJN--144">
          <mxGeometry relative="1" as="geometry" />
        </mxCell>
        <mxCell id="MW5vYafI3tXqi2waWJN--135" value="" style="ellipse;whiteSpace=wrap;html=1;aspect=fixed;fillColor=#c596cb;" vertex="1" parent="1">
          <mxGeometry x="911" y="330" width="20" height="20" as="geometry" />
        </mxCell>
        <mxCell id="MW5vYafI3tXqi2waWJN--136" style="edgeStyle=orthogonalEdgeStyle;rounded=0;orthogonalLoop=1;jettySize=auto;html=1;entryX=0.5;entryY=1;entryDx=0;entryDy=0;strokeColor=#FF0000;" edge="1" parent="1" source="MW5vYafI3tXqi2waWJN--137" target="MW5vYafI3tXqi2waWJN--139">
          <mxGeometry relative="1" as="geometry" />
        </mxCell>
        <mxCell id="MW5vYafI3tXqi2waWJN--155" style="rounded=0;orthogonalLoop=1;jettySize=auto;html=1;entryX=0;entryY=0.5;entryDx=0;entryDy=0;dashed=1;" edge="1" parent="1" source="MW5vYafI3tXqi2waWJN--137" target="MW5vYafI3tXqi2waWJN--141">
          <mxGeometry relative="1" as="geometry" />
        </mxCell>
        <mxCell id="MW5vYafI3tXqi2waWJN--156" style="rounded=0;orthogonalLoop=1;jettySize=auto;html=1;entryX=0;entryY=0.5;entryDx=0;entryDy=0;dashed=1;" edge="1" parent="1" source="MW5vYafI3tXqi2waWJN--137" target="MW5vYafI3tXqi2waWJN--144">
          <mxGeometry relative="1" as="geometry" />
        </mxCell>
        <mxCell id="MW5vYafI3tXqi2waWJN--137" value="" style="ellipse;whiteSpace=wrap;html=1;aspect=fixed;fillColor=#215200;" vertex="1" parent="1">
          <mxGeometry x="911" y="270" width="20" height="20" as="geometry" />
        </mxCell>
        <mxCell id="MW5vYafI3tXqi2waWJN--138" style="edgeStyle=orthogonalEdgeStyle;rounded=0;orthogonalLoop=1;jettySize=auto;html=1;entryX=0.5;entryY=1;entryDx=0;entryDy=0;strokeColor=#FF0000;" edge="1" parent="1" source="MW5vYafI3tXqi2waWJN--139" target="MW5vYafI3tXqi2waWJN--140">
          <mxGeometry relative="1" as="geometry" />
        </mxCell>
        <mxCell id="MW5vYafI3tXqi2waWJN--153" style="rounded=0;orthogonalLoop=1;jettySize=auto;html=1;entryX=0;entryY=0.5;entryDx=0;entryDy=0;dashed=1;" edge="1" parent="1" source="MW5vYafI3tXqi2waWJN--139" target="MW5vYafI3tXqi2waWJN--141">
          <mxGeometry relative="1" as="geometry" />
        </mxCell>
        <mxCell id="MW5vYafI3tXqi2waWJN--154" style="rounded=0;orthogonalLoop=1;jettySize=auto;html=1;entryX=0;entryY=0.5;entryDx=0;entryDy=0;dashed=1;" edge="1" parent="1" source="MW5vYafI3tXqi2waWJN--139" target="MW5vYafI3tXqi2waWJN--144">
          <mxGeometry relative="1" as="geometry" />
        </mxCell>
        <mxCell id="MW5vYafI3tXqi2waWJN--139" value="" style="ellipse;whiteSpace=wrap;html=1;aspect=fixed;fillColor=#A4C1D1;fillStyle=auto;" vertex="1" parent="1">
          <mxGeometry x="911" y="210" width="20" height="20" as="geometry" />
        </mxCell>
        <mxCell id="MW5vYafI3tXqi2waWJN--151" style="rounded=0;orthogonalLoop=1;jettySize=auto;html=1;entryX=0;entryY=0.5;entryDx=0;entryDy=0;dashed=1;" edge="1" parent="1" source="MW5vYafI3tXqi2waWJN--140" target="MW5vYafI3tXqi2waWJN--141">
          <mxGeometry relative="1" as="geometry" />
        </mxCell>
        <mxCell id="MW5vYafI3tXqi2waWJN--152" style="rounded=0;orthogonalLoop=1;jettySize=auto;html=1;entryX=0;entryY=0.5;entryDx=0;entryDy=0;dashed=1;" edge="1" parent="1" source="MW5vYafI3tXqi2waWJN--140" target="MW5vYafI3tXqi2waWJN--144">
          <mxGeometry relative="1" as="geometry" />
        </mxCell>
        <mxCell id="MW5vYafI3tXqi2waWJN--140" value="" style="ellipse;whiteSpace=wrap;html=1;aspect=fixed;fillColor=#660000;" vertex="1" parent="1">
          <mxGeometry x="911" y="150" width="20" height="20" as="geometry" />
        </mxCell>
        <mxCell id="MW5vYafI3tXqi2waWJN--147" style="edgeStyle=orthogonalEdgeStyle;rounded=0;orthogonalLoop=1;jettySize=auto;html=1;entryX=0;entryY=0.5;entryDx=0;entryDy=0;" edge="1" parent="1" source="MW5vYafI3tXqi2waWJN--141" target="MW5vYafI3tXqi2waWJN--145">
          <mxGeometry relative="1" as="geometry" />
        </mxCell>
        <mxCell id="MW5vYafI3tXqi2waWJN--141" value="conv" style="rounded=1;whiteSpace=wrap;html=1;" vertex="1" parent="1">
          <mxGeometry x="1040" y="235" width="60" height="40" as="geometry" />
        </mxCell>
        <mxCell id="MW5vYafI3tXqi2waWJN--148" style="edgeStyle=orthogonalEdgeStyle;rounded=0;orthogonalLoop=1;jettySize=auto;html=1;" edge="1" parent="1" source="MW5vYafI3tXqi2waWJN--144" target="MW5vYafI3tXqi2waWJN--146">
          <mxGeometry relative="1" as="geometry" />
        </mxCell>
        <mxCell id="MW5vYafI3tXqi2waWJN--144" value="conv" style="rounded=1;whiteSpace=wrap;html=1;" vertex="1" parent="1">
          <mxGeometry x="1040" y="320" width="60" height="40" as="geometry" />
        </mxCell>
        <mxCell id="MW5vYafI3tXqi2waWJN--149" style="edgeStyle=orthogonalEdgeStyle;rounded=0;orthogonalLoop=1;jettySize=auto;html=1;" edge="1" parent="1" source="MW5vYafI3tXqi2waWJN--145">
          <mxGeometry relative="1" as="geometry">
            <mxPoint x="1250" y="255" as="targetPoint" />
          </mxGeometry>
        </mxCell>
        <mxCell id="MW5vYafI3tXqi2waWJN--145" value="conv" style="rounded=1;whiteSpace=wrap;html=1;" vertex="1" parent="1">
          <mxGeometry x="1140" y="235" width="60" height="40" as="geometry" />
        </mxCell>
        <mxCell id="MW5vYafI3tXqi2waWJN--150" style="edgeStyle=orthogonalEdgeStyle;rounded=0;orthogonalLoop=1;jettySize=auto;html=1;" edge="1" parent="1" source="MW5vYafI3tXqi2waWJN--146">
          <mxGeometry relative="1" as="geometry">
            <mxPoint x="1250" y="340" as="targetPoint" />
          </mxGeometry>
        </mxCell>
        <mxCell id="MW5vYafI3tXqi2waWJN--146" value="conv" style="rounded=1;whiteSpace=wrap;html=1;" vertex="1" parent="1">
          <mxGeometry x="1140" y="320" width="60" height="40" as="geometry" />
        </mxCell>
        <mxCell id="MW5vYafI3tXqi2waWJN--161" value="" style="rounded=0;whiteSpace=wrap;html=1;dashed=1;fillColor=none;" vertex="1" parent="1">
          <mxGeometry x="1020" y="220" width="200" height="70" as="geometry" />
        </mxCell>
        <mxCell id="MW5vYafI3tXqi2waWJN--162" value="" style="rounded=0;whiteSpace=wrap;html=1;dashed=1;fillColor=none;" vertex="1" parent="1">
          <mxGeometry x="1020" y="310" width="200" height="70" as="geometry" />
        </mxCell>
        <mxCell id="MW5vYafI3tXqi2waWJN--163" value="Class prediction net" style="text;html=1;strokeColor=none;fillColor=none;align=center;verticalAlign=middle;whiteSpace=wrap;rounded=0;" vertex="1" parent="1">
          <mxGeometry x="1020" y="190" width="200" height="30" as="geometry" />
        </mxCell>
        <mxCell id="MW5vYafI3tXqi2waWJN--164" value="Box prediction net" style="text;html=1;strokeColor=none;fillColor=none;align=center;verticalAlign=middle;whiteSpace=wrap;rounded=0;" vertex="1" parent="1">
          <mxGeometry x="1020" y="380" width="200" height="30" as="geometry" />
        </mxCell>
        <mxCell id="MW5vYafI3tXqi2waWJN--165" value="P&lt;sub&gt;3&lt;/sub&gt;&amp;nbsp;" style="text;html=1;strokeColor=none;fillColor=none;align=center;verticalAlign=middle;whiteSpace=wrap;rounded=0;" vertex="1" parent="1">
          <mxGeometry x="410" y="370" width="30" height="30" as="geometry" />
        </mxCell>
        <mxCell id="MW5vYafI3tXqi2waWJN--166" value="P&lt;sub&gt;4&lt;/sub&gt;" style="text;html=1;strokeColor=none;fillColor=none;align=center;verticalAlign=middle;whiteSpace=wrap;rounded=0;" vertex="1" parent="1">
          <mxGeometry x="410" y="310" width="30" height="30" as="geometry" />
        </mxCell>
        <mxCell id="MW5vYafI3tXqi2waWJN--167" value="P&lt;sub&gt;5&lt;/sub&gt;" style="text;html=1;strokeColor=none;fillColor=none;align=center;verticalAlign=middle;whiteSpace=wrap;rounded=0;" vertex="1" parent="1">
          <mxGeometry x="410" y="250" width="30" height="30" as="geometry" />
        </mxCell>
        <mxCell id="MW5vYafI3tXqi2waWJN--168" value="P&lt;sub&gt;6&lt;/sub&gt;" style="text;html=1;strokeColor=none;fillColor=none;align=center;verticalAlign=middle;whiteSpace=wrap;rounded=0;" vertex="1" parent="1">
          <mxGeometry x="410" y="190" width="30" height="30" as="geometry" />
        </mxCell>
        <mxCell id="MW5vYafI3tXqi2waWJN--169" value="P&lt;sub&gt;7&lt;/sub&gt;" style="text;html=1;strokeColor=none;fillColor=none;align=center;verticalAlign=middle;whiteSpace=wrap;rounded=0;" vertex="1" parent="1">
          <mxGeometry x="410" y="130" width="30" height="30" as="geometry" />
        </mxCell>
      </root>
    </mxGraphModel>
  </diagram>
</mxfile>
